<svg width="98" height="52" viewBox="0 0 98 52" fill="none" xmlns="http://www.w3.org/2000/svg">
<path fill-rule="evenodd" clip-rule="evenodd" d="M36.5703 0.726074C36.018 0.726074 35.5703 1.17379 35.5703 1.72607V6.00103C35.5703 6.55331 36.018 7.00103 36.5703 7.00103H72.8973C83.0242 7.00103 90.9777 14.7977 90.9777 24.8905C90.9777 25.1761 91.2092 25.4076 91.4948 25.4076H96.757C97.0425 25.4076 97.274 25.1761 97.274 24.8905C97.274 11.4012 86.432 0.726074 72.8973 0.726074H36.5703Z" fill="#6B7B84" stroke="#80949F" stroke-width="0.5"/>
<path fill-rule="evenodd" clip-rule="evenodd" d="M7.10682 25.846C7.10682 25.6039 6.91059 25.4077 6.66853 25.4077H1.16436C0.922303 25.4077 0.726074 25.6039 0.726074 25.846C0.726074 39.4954 10.9493 50.7649 24.1687 51.5024L66.5104 51.5402C67.063 51.5406 67.5113 51.0928 67.5113 50.5402V45.9605C67.5113 45.4083 67.0635 44.9605 66.5113 44.9605H25.6265C15.3903 44.9322 7.10682 36.4168 7.10682 25.846Z" fill="#6B7B84" stroke="#80949F" stroke-width="0.5"/>
<path fill-rule="evenodd" clip-rule="evenodd" d="M28.1415 39.9262C30.8803 39.9262 33.1616 39.3941 35.4149 38.2993L35.5704 38.1537V30.3193L34.7273 31.3987C33.1049 33.1716 30.9259 34.1475 28.4608 34.1475C23.8692 34.1475 19.2575 31.1796 19.2575 25.5076C19.2575 21.2212 22.4381 16.6658 28.2993 16.6658C29.4688 16.6658 32.313 16.9423 34.7232 19.5018L35.5704 20.5455V12.7465L35.4218 12.5991C33.1258 11.4485 30.7843 10.8892 28.1137 10.8892C23.5467 10.8892 19.9821 12.0915 17.1438 14.5627C15.3435 16.1115 12.3408 19.5823 12.3408 25.4261C12.3408 29.7468 13.8793 33.1213 17.1669 36.0482C20.2252 38.73 23.6163 39.9262 28.1415 39.9262Z" fill="#6B7B84"/>
<path d="M28.1415 39.9262C30.8803 39.9262 33.1616 39.3941 35.4149 38.2993L35.5704 38.1537V30.3193L34.7273 31.3987C33.1049 33.1716 30.9259 34.1475 28.4608 34.1475C23.8692 34.1475 19.2575 31.1796 19.2575 25.5076C19.2575 21.2212 22.4381 16.6658 28.2993 16.6658C29.4688 16.6658 32.313 16.9423 34.7232 19.5018L35.5704 20.5455V12.7465L35.4218 12.5991C33.1258 11.4485 30.7843 10.8892 28.1137 10.8892C23.5467 10.8892 19.9821 12.0915 17.1438 14.5627C15.3435 16.1115 12.3408 19.5823 12.3408 25.4261C12.3408 29.7468 13.8793 33.1213 17.1669 36.0482C20.2252 38.73 23.6163 39.9262 28.1415 39.9262" stroke="#80949F" stroke-width="0.5"/>
<path fill-rule="evenodd" clip-rule="evenodd" d="M47.9113 17.4225H49.2756C50.527 17.4225 51.9534 17.4908 53.033 18.2266C53.5601 18.6032 54.4446 19.4749 54.4446 21.0582C54.4446 22.2283 53.9275 23.2774 53.0735 23.932C51.9785 24.7269 50.6769 24.6813 49.6311 24.6813H47.9113V17.4225ZM50.977 29.9516C54.2084 29.9516 56.7377 29.0196 58.4943 27.2636C60.655 25.1073 60.9779 22.1411 60.9779 20.5773C60.9779 18.904 60.5813 15.6404 57.9212 13.2773C55.7407 11.3666 53.4142 10.8892 50.1324 10.8892H41.3779V39.9262H48.0365V29.9516H50.977Z" fill="#6B7B84"/>
<path d="M47.9113 17.4225V17.1725H47.6613V17.4225H47.9113ZM53.033 18.2266L53.1783 18.0232L53.1738 18.0201L53.033 18.2266ZM53.0735 23.932L53.2204 24.1344L53.2256 24.1304L53.0735 23.932ZM47.9113 24.6813H47.6613V24.9313H47.9113V24.6813ZM58.4943 27.2636L58.3177 27.0867L58.3175 27.0868L58.4943 27.2636ZM57.9212 13.2773L58.0872 13.0904L58.086 13.0893L57.9212 13.2773ZM41.3779 10.8892V10.6392H41.1279V10.8892H41.3779ZM41.3779 39.9262H41.1279V40.1762H41.3779V39.9262ZM48.0365 39.9262V40.1762H48.2865V39.9262H48.0365ZM48.0365 29.9516V29.7016H47.7865V29.9516H48.0365ZM47.9113 17.6725H49.2756V17.1725H47.9113V17.6725ZM49.2756 17.6725C50.5328 17.6725 51.884 17.746 52.8922 18.4332L53.1738 18.0201C52.0228 17.2355 50.5213 17.1725 49.2756 17.1725V17.6725ZM52.8877 18.4301C53.3753 18.7784 54.1946 19.5832 54.1946 21.0582H54.6946C54.6946 19.3666 53.7449 18.428 53.1783 18.0232L52.8877 18.4301ZM54.1946 21.0582C54.1946 22.1542 53.7109 23.1285 52.9214 23.7336L53.2256 24.1304C54.1442 23.4263 54.6946 22.3023 54.6946 21.0582H54.1946ZM52.9266 23.7297C51.9093 24.4682 50.6973 24.4313 49.6311 24.4313V24.9313C50.6566 24.9313 52.0477 24.9855 53.2203 24.1343L52.9266 23.7297ZM49.6311 24.4313H47.9113V24.9313H49.6311V24.4313ZM48.1613 24.6813V17.4225H47.6613V24.6813H48.1613ZM50.977 30.2016C54.2568 30.2016 56.8563 29.2545 58.671 27.4404L58.3175 27.0868C56.6191 28.7847 54.1599 29.7016 50.977 29.7016V30.2016ZM58.6709 27.4406C60.9029 25.2131 61.2279 22.1625 61.2279 20.5773H60.7279C60.7279 22.1197 60.407 25.0016 58.3177 27.0867L58.6709 27.4406ZM61.2279 20.5773C61.2279 18.876 60.8263 15.5236 58.0872 13.0904L57.7552 13.4642C60.3363 15.7571 60.7279 18.9321 60.7279 20.5773H61.2279ZM58.086 13.0893C55.84 11.1212 53.4417 10.6392 50.1324 10.6392V11.1392C53.3867 11.1392 55.6415 11.612 57.7564 13.4653L58.086 13.0893ZM50.1324 10.6392H41.3779V11.1392H50.1324V10.6392ZM41.1279 10.8892V39.9262H41.6279V10.8892H41.1279ZM41.3779 40.1762H48.0365V39.6762H41.3779V40.1762ZM48.2865 39.9262V29.9516H47.7865V39.9262H48.2865ZM48.0365 30.2016H50.977V29.7016H48.0365V30.2016Z" fill="#80949F"/>
<path fill-rule="evenodd" clip-rule="evenodd" d="M80.953 24.6025C79.5053 23.3198 77.4846 22.5763 75.1911 21.8051C73.5569 21.2364 72.6565 20.9232 72.0562 20.3759C71.5824 19.9737 71.3712 19.5371 71.3712 18.96C71.3712 17.696 72.2301 16.3451 74.6414 16.3451C76.2801 16.3451 77.6521 17.0458 78.7197 18.4268L79.1435 18.9752L82.6597 14.4994L82.3392 14.1783C80.1886 12.0262 77.3548 10.8892 74.1439 10.8892C67.6657 10.8892 64.7658 15.1037 64.7658 19.2806C64.7658 21.522 65.5651 23.3298 67.1367 24.6513C68.5437 25.8572 70.2595 26.5329 71.9054 27.0845L72.0914 27.1461C73.553 27.6292 75.0646 28.1292 75.9674 28.9372C76.5955 29.5143 76.8754 30.1414 76.8754 30.9705C76.8754 32.8706 75.379 34.1475 73.152 34.1475C71.3916 34.1475 69.0735 33.2846 67.8471 30.8634L67.5263 30.2291L63.1558 34.2748L63.4135 34.6394C64.8079 36.6138 67.9545 39.9262 73.3594 39.9262C79.3191 39.9262 83.4817 36.0946 83.4817 30.6089C83.4817 27.4712 82.1051 25.609 80.953 24.6025Z" fill="#6B7B84"/>
<path d="M80.953 24.6025C79.5053 23.3198 77.4846 22.5763 75.1911 21.8051C73.5569 21.2364 72.6565 20.9232 72.0562 20.3759C71.5824 19.9737 71.3712 19.5371 71.3712 18.96C71.3712 17.696 72.2301 16.3451 74.6414 16.3451C76.2801 16.3451 77.6521 17.0458 78.7197 18.4268L79.1435 18.9752L82.6597 14.4994L82.3392 14.1783C80.1886 12.0262 77.3548 10.8892 74.1439 10.8892C67.6657 10.8892 64.7658 15.1037 64.7658 19.2806C64.7658 21.522 65.5651 23.3298 67.1367 24.6513C68.5437 25.8572 70.2595 26.5329 71.9054 27.0845L72.0914 27.1461C73.553 27.6292 75.0646 28.1292 75.9674 28.9372C76.5955 29.5143 76.8754 30.1414 76.8754 30.9705C76.8754 32.8706 75.379 34.1475 73.152 34.1475C71.3916 34.1475 69.0735 33.2846 67.8471 30.8634L67.5263 30.2291L63.1558 34.2748L63.4135 34.6394C64.8079 36.6138 67.9545 39.9262 73.3594 39.9262C79.3191 39.9262 83.4817 36.0946 83.4817 30.6089C83.4817 27.4712 82.1051 25.609 80.953 24.6025" stroke="#80949F" stroke-width="0.5"/>
</svg>
